<svg xmlns="http://www.w3.org/2000/svg" viewBox="0 0 100 100">
  <defs>
    <linearGradient id="g" x1="0%" y1="0%" x2="100%" y2="100%">
      <stop offset="0%" stop-color="#3b82f6"/>
      <stop offset="100%" stop-color="#1e40af"/>
    </linearGradient>
  </defs>
  <path d="M36.3,23.7L37.2,25.1L35.8,26.9L32.1,25.0L35.2,22.7L36.3,23.7ZM62.7,58.6L60.7,61.9L57.0,62.0L60.6,57.9L62.7,58.6ZM66.2,47.7L64.6,53.7L61.0,52.6L59.0,54.4L54.2,54.7L53.5,52.8L55.4,52.7L56.3,50.5L55.5,48.3L52.2,49.6L52.9,51.3L51.3,53.0L51.8,54.2L52.2,49.6L55.5,48.3L55.4,52.7L51.7,54.4L49.0,53.7L48.6,51.2L45.7,50.1L47.8,45.5L45.3,44.4L45.9,40.9L44.6,39.5L46.2,39.5L46.6,37.4L47.9,37.9L47.8,36.2L52.2,36.3L54.5,32.6L62.1,32.9L63.6,31.2L65.0,37.0L63.7,48.0L66.2,47.7ZM29.1,25.3L29.9,26.0L27.3,26.7L29.1,25.3ZM30.8,23.7L32.5,24.6L32.3,26.5L30.4,28.2L30.8,23.7ZM28.1,20.8L29.4,24.0L28.4,24.5L27.1,22.5L28.1,20.8ZM32.6,62.6L30.8,60.6L34.1,59.7L35.1,61.6L32.6,62.6ZM53.7,13.5L63.6,31.2L62.1,32.9L54.7,32.3L52.2,36.3L47.8,36.2L47.9,37.9L46.6,37.4L46.2,39.5L44.6,39.6L45.9,40.9L45.3,44.4L47.8,45.5L44.2,48.3L42.0,45.0L39.5,44.4L39.0,45.8L38.0,44.2L39.9,41.0L38.3,38.9L40.1,37.1L38.5,34.5L43.4,31.3L45.2,25.0L41.5,23.7L42.4,19.1L36.1,13.8L48.1,13.7L51.0,11.5L51.6,9.0L53.7,13.5ZM46.2,31.0L46.7,29.5L49.6,29.7L46.7,29.5L46.2,31.0ZM63.4,56.5L62.9,58.5L59.2,54.2L61.0,52.6L64.6,53.7L63.4,56.5ZM39.5,40.0L38.0,42.4L36.5,37.9L39.5,40.0ZM30.4,28.6L30.7,30.5L29.7,30.5L30.4,28.6ZM32.4,30.8L30.7,31.1L31.2,29.5L33.5,29.5L31.2,28.3L32.1,25.0L35.8,26.9L37.1,24.6L35.3,22.8L33.2,24.7L29.6,24.3L29.1,21.6L31.1,22.1L31.0,18.9L32.9,18.3L34.7,14.7L36.8,14.4L42.4,19.1L41.5,23.7L45.2,25.0L44.0,30.1L38.4,35.1L36.3,33.9L33.1,34.8L32.4,30.8ZM25.7,35.5L26.5,33.8L26.3,36.5L27.3,36.0L28.1,34.9L26.8,33.5L28.9,32.5L33.3,35.3L36.3,33.9L38.3,34.8L40.1,37.1L36.5,37.9L38.0,44.2L39.0,45.8L39.5,44.4L42.0,45.0L42.4,48.5L34.4,46.2L30.9,48.4L28.8,46.5L30.0,43.3L28.4,39.6L26.4,39.7L26.2,37.5L24.3,37.9L25.7,35.5ZM35.5,46.4L36.4,47.6L39.1,46.6L40.9,48.8L42.5,47.5L45.6,48.2L45.7,49.8L43.0,52.0L42.2,58.8L36.2,59.0L35.4,56.5L34.2,57.6L32.8,56.2L29.9,58.9L28.1,57.0L31.1,55.6L28.4,54.3L29.2,48.9L35.5,46.4ZM28.7,51.3L29.7,53.2L31.4,51.6L30.0,49.3L28.7,51.3ZM30.8,73.3L31.4,72.3L32.3,73.9L30.8,73.3ZM25.9,69.5L27.3,71.6L24.4,72.8L25.9,69.5ZM26.5,64.6L27.2,66.1L25.6,65.7L26.5,64.6ZM26.6,67.1L28.3,66.6L27.1,66.4L27.4,63.4L27.3,64.6L26.4,63.9L27.6,62.9L24.7,62.1L27.0,61.0L28.0,63.0L26.5,60.1L28.0,57.0L29.9,58.9L32.8,56.2L34.2,57.6L35.4,56.5L36.2,59.0L41.0,58.1L44.5,63.1L42.0,64.6L42.6,65.9L44.4,65.5L42.8,68.9L41.3,65.0L39.1,65.8L41.1,69.4L39.1,71.6L36.3,70.1L39.1,67.7L37.8,66.9L34.4,68.9L33.6,71.9L32.3,68.8L29.2,73.8L28.4,70.3L26.2,69.4L26.6,67.1ZM31.1,60.4L32.2,62.6L35.1,61.5L33.9,59.6L31.1,60.4ZM47.5,64.6L48.1,65.9L46.7,65.7L47.5,64.6ZM45.8,64.2L46.4,66.2L47.9,66.1L47.6,67.8L45.1,67.1L45.8,64.2ZM55.3,62.8L56.0,66.5L54.1,67.8L54.4,65.9L52.8,65.2L54.7,65.0L55.3,62.8ZM54.7,60.1L54.8,62.4L51.5,62.7L53.1,63.1L52.4,65.8L51.0,63.9L47.7,64.5L47.8,62.1L44.5,64.3L42.0,59.0L43.0,52.0L45.7,49.9L48.6,51.2L49.0,53.7L53.5,53.3L56.3,55.0L58.5,54.0L61.8,57.3L56.9,62.3L54.4,61.4L54.7,60.1Z" fill="url(#g)" stroke="#1e3a8a" stroke-width="1.2" stroke-linejoin="round" fill-rule="evenodd"/>
  <path d="M32.2,84.5L34.3,86.0L32.9,88.2L30.1,89.2L26.8,89.1L26.4,89.8L24.8,88.5L26.7,85.8L32.2,84.5Z" fill="url(#g)" stroke="#1e3a8a" stroke-width="1.2" stroke-linejoin="round" fill-rule="evenodd"/>
</svg>